<mxfile host="app.diagrams.net" modified="2020-11-10T07:09:07.403Z" agent="5.0 (Windows NT 10.0; Win64; x64) AppleWebKit/537.36 (KHTML, like Gecko) Chrome/86.0.4240.183 Safari/537.36" etag="tNjIrn_2HJgg0zLholnC" version="13.9.3" type="github">
  <diagram id="5DU_55tko8CwSzTfcotJ" name="Page-1">
    <mxGraphModel dx="1422" dy="1963" grid="1" gridSize="10" guides="1" tooltips="1" connect="1" arrows="1" fold="1" page="1" pageScale="1" pageWidth="827" pageHeight="1169" math="0" shadow="0">
      <root>
        <mxCell id="0" />
        <mxCell id="1" parent="0" />
        <mxCell id="f3-mS_p8eY1mGGOlr4Zz-1" value="Employee" style="shape=umlActor;verticalLabelPosition=bottom;verticalAlign=top;html=1;outlineConnect=0;" parent="1" vertex="1">
          <mxGeometry x="150" y="60" width="30" height="60" as="geometry" />
        </mxCell>
        <mxCell id="f3-mS_p8eY1mGGOlr4Zz-3" value="Manager" style="shape=umlActor;verticalLabelPosition=bottom;verticalAlign=top;html=1;outlineConnect=0;" parent="1" vertex="1">
          <mxGeometry x="150" y="485" width="30" height="60" as="geometry" />
        </mxCell>
        <mxCell id="f3-mS_p8eY1mGGOlr4Zz-4" value="Admin" style="shape=umlActor;verticalLabelPosition=bottom;verticalAlign=top;html=1;outlineConnect=0;" parent="1" vertex="1">
          <mxGeometry x="150" y="715" width="30" height="60" as="geometry" />
        </mxCell>
        <mxCell id="f3-mS_p8eY1mGGOlr4Zz-6" value="Authentication" style="ellipse;whiteSpace=wrap;html=1;" parent="1" vertex="1">
          <mxGeometry x="300" y="-140" width="120" height="80" as="geometry" />
        </mxCell>
        <mxCell id="f3-mS_p8eY1mGGOlr4Zz-7" value="Wrong account" style="ellipse;whiteSpace=wrap;html=1;" parent="1" vertex="1">
          <mxGeometry x="550" y="-180" width="120" height="80" as="geometry" />
        </mxCell>
        <mxCell id="f3-mS_p8eY1mGGOlr4Zz-8" value="Export excel timetable" style="ellipse;whiteSpace=wrap;html=1;" parent="1" vertex="1">
          <mxGeometry x="300" y="40" width="120" height="80" as="geometry" />
        </mxCell>
        <mxCell id="f3-mS_p8eY1mGGOlr4Zz-9" value="Shows salary" style="ellipse;whiteSpace=wrap;html=1;" parent="1" vertex="1">
          <mxGeometry x="300" y="140" width="120" height="80" as="geometry" />
        </mxCell>
        <mxCell id="f3-mS_p8eY1mGGOlr4Zz-12" value="Manage employee" style="ellipse;whiteSpace=wrap;html=1;" parent="1" vertex="1">
          <mxGeometry x="300" y="365" width="120" height="80" as="geometry" />
        </mxCell>
        <mxCell id="f3-mS_p8eY1mGGOlr4Zz-13" value="Manage employees work time" style="ellipse;whiteSpace=wrap;html=1;" parent="1" vertex="1">
          <mxGeometry x="300" y="455" width="120" height="80" as="geometry" />
        </mxCell>
        <mxCell id="f3-mS_p8eY1mGGOlr4Zz-14" value="Export employees salary" style="ellipse;whiteSpace=wrap;html=1;" parent="1" vertex="1">
          <mxGeometry x="300" y="545" width="120" height="80" as="geometry" />
        </mxCell>
        <mxCell id="f3-mS_p8eY1mGGOlr4Zz-15" value="Set magager" style="ellipse;whiteSpace=wrap;html=1;" parent="1" vertex="1">
          <mxGeometry x="300" y="660" width="120" height="80" as="geometry" />
        </mxCell>
        <mxCell id="f3-mS_p8eY1mGGOlr4Zz-16" value="" style="endArrow=none;html=1;entryX=0.025;entryY=0.688;entryDx=0;entryDy=0;entryPerimeter=0;exitX=1;exitY=0.3333333333333333;exitDx=0;exitDy=0;exitPerimeter=0;" parent="1" source="f3-mS_p8eY1mGGOlr4Zz-1" target="f3-mS_p8eY1mGGOlr4Zz-6" edge="1">
          <mxGeometry width="50" height="50" relative="1" as="geometry">
            <mxPoint x="230" y="70" as="sourcePoint" />
            <mxPoint x="280" y="20" as="targetPoint" />
          </mxGeometry>
        </mxCell>
        <mxCell id="f3-mS_p8eY1mGGOlr4Zz-17" value="" style="endArrow=none;html=1;exitX=1;exitY=0.3333333333333333;exitDx=0;exitDy=0;exitPerimeter=0;entryX=0;entryY=0.5;entryDx=0;entryDy=0;" parent="1" source="f3-mS_p8eY1mGGOlr4Zz-1" target="f3-mS_p8eY1mGGOlr4Zz-8" edge="1">
          <mxGeometry width="50" height="50" relative="1" as="geometry">
            <mxPoint x="390" y="200" as="sourcePoint" />
            <mxPoint x="440" y="150" as="targetPoint" />
          </mxGeometry>
        </mxCell>
        <mxCell id="f3-mS_p8eY1mGGOlr4Zz-18" value="" style="endArrow=none;html=1;entryX=1;entryY=0.3333333333333333;entryDx=0;entryDy=0;entryPerimeter=0;exitX=0.058;exitY=0.238;exitDx=0;exitDy=0;exitPerimeter=0;" parent="1" source="f3-mS_p8eY1mGGOlr4Zz-9" target="f3-mS_p8eY1mGGOlr4Zz-1" edge="1">
          <mxGeometry width="50" height="50" relative="1" as="geometry">
            <mxPoint x="390" y="200" as="sourcePoint" />
            <mxPoint x="440" y="150" as="targetPoint" />
          </mxGeometry>
        </mxCell>
        <mxCell id="f3-mS_p8eY1mGGOlr4Zz-19" value="" style="endArrow=none;html=1;entryX=0.008;entryY=0.613;entryDx=0;entryDy=0;entryPerimeter=0;exitX=1;exitY=0.3333333333333333;exitDx=0;exitDy=0;exitPerimeter=0;" parent="1" source="f3-mS_p8eY1mGGOlr4Zz-3" target="f3-mS_p8eY1mGGOlr4Zz-12" edge="1">
          <mxGeometry width="50" height="50" relative="1" as="geometry">
            <mxPoint x="390" y="415" as="sourcePoint" />
            <mxPoint x="440" y="365" as="targetPoint" />
          </mxGeometry>
        </mxCell>
        <mxCell id="f3-mS_p8eY1mGGOlr4Zz-20" value="" style="endArrow=none;html=1;exitX=1;exitY=0.3333333333333333;exitDx=0;exitDy=0;exitPerimeter=0;entryX=0;entryY=0.5;entryDx=0;entryDy=0;" parent="1" source="f3-mS_p8eY1mGGOlr4Zz-3" target="f3-mS_p8eY1mGGOlr4Zz-13" edge="1">
          <mxGeometry width="50" height="50" relative="1" as="geometry">
            <mxPoint x="390" y="475" as="sourcePoint" />
            <mxPoint x="440" y="425" as="targetPoint" />
          </mxGeometry>
        </mxCell>
        <mxCell id="f3-mS_p8eY1mGGOlr4Zz-21" value="" style="endArrow=none;html=1;entryX=1;entryY=0.3333333333333333;entryDx=0;entryDy=0;entryPerimeter=0;exitX=0.067;exitY=0.263;exitDx=0;exitDy=0;exitPerimeter=0;" parent="1" source="f3-mS_p8eY1mGGOlr4Zz-14" target="f3-mS_p8eY1mGGOlr4Zz-3" edge="1">
          <mxGeometry width="50" height="50" relative="1" as="geometry">
            <mxPoint x="390" y="625" as="sourcePoint" />
            <mxPoint x="440" y="575" as="targetPoint" />
          </mxGeometry>
        </mxCell>
        <mxCell id="f3-mS_p8eY1mGGOlr4Zz-22" value="" style="endArrow=none;html=1;exitX=1;exitY=0.3333333333333333;exitDx=0;exitDy=0;exitPerimeter=0;entryX=-0.008;entryY=0.4;entryDx=0;entryDy=0;entryPerimeter=0;" parent="1" source="f3-mS_p8eY1mGGOlr4Zz-4" target="f3-mS_p8eY1mGGOlr4Zz-15" edge="1">
          <mxGeometry width="50" height="50" relative="1" as="geometry">
            <mxPoint x="390" y="715" as="sourcePoint" />
            <mxPoint x="440" y="665" as="targetPoint" />
          </mxGeometry>
        </mxCell>
        <mxCell id="f3-mS_p8eY1mGGOlr4Zz-23" value="" style="endArrow=classic;html=1;" parent="1" edge="1">
          <mxGeometry width="50" height="50" relative="1" as="geometry">
            <mxPoint x="164.5" y="705" as="sourcePoint" />
            <mxPoint x="164.5" y="575" as="targetPoint" />
          </mxGeometry>
        </mxCell>
        <mxCell id="f3-mS_p8eY1mGGOlr4Zz-24" value="" style="endArrow=classic;html=1;" parent="1" edge="1">
          <mxGeometry width="50" height="50" relative="1" as="geometry">
            <mxPoint x="165" y="470" as="sourcePoint" />
            <mxPoint x="165" y="140" as="targetPoint" />
          </mxGeometry>
        </mxCell>
        <mxCell id="pd6H4_zTq-VjwLIfwzo8-1" value="&lt;div&gt;Extend&lt;/div&gt;" style="html=1;verticalAlign=bottom;endArrow=open;dashed=1;endSize=8;exitX=-0.004;exitY=0.656;exitDx=0;exitDy=0;exitPerimeter=0;entryX=0.989;entryY=0.604;entryDx=0;entryDy=0;entryPerimeter=0;" parent="1" source="f3-mS_p8eY1mGGOlr4Zz-7" target="f3-mS_p8eY1mGGOlr4Zz-6" edge="1">
          <mxGeometry relative="1" as="geometry">
            <mxPoint x="510" y="30" as="sourcePoint" />
            <mxPoint x="430" y="30" as="targetPoint" />
          </mxGeometry>
        </mxCell>
        <mxCell id="nJyf5GIuYWcogrWfHHin-1" value="Manage profile" style="ellipse;whiteSpace=wrap;html=1;" parent="1" vertex="1">
          <mxGeometry x="300" y="-50" width="120" height="80" as="geometry" />
        </mxCell>
        <mxCell id="QDg94axCXkNh4zWTRKUo-1" value="" style="endArrow=none;html=1;" parent="1" target="nJyf5GIuYWcogrWfHHin-1" edge="1">
          <mxGeometry width="50" height="50" relative="1" as="geometry">
            <mxPoint x="180" y="80" as="sourcePoint" />
            <mxPoint x="319.99999999999636" y="70.00000000000023" as="targetPoint" />
          </mxGeometry>
        </mxCell>
        <mxCell id="n-i_DfEyNYGNLPT6RtmV-1" value="Import excel&amp;nbsp; timetable file" style="ellipse;whiteSpace=wrap;html=1;" parent="1" vertex="1">
          <mxGeometry x="490" y="100" width="120" height="80" as="geometry" />
        </mxCell>
        <mxCell id="n-i_DfEyNYGNLPT6RtmV-3" value="&lt;div&gt;Include&lt;/div&gt;" style="html=1;verticalAlign=bottom;endArrow=open;dashed=1;endSize=8;exitX=1.021;exitY=0.403;exitDx=0;exitDy=0;exitPerimeter=0;entryX=0.013;entryY=0.611;entryDx=0;entryDy=0;entryPerimeter=0;" parent="1" source="f3-mS_p8eY1mGGOlr4Zz-9" target="n-i_DfEyNYGNLPT6RtmV-1" edge="1">
          <mxGeometry x="0.0732" y="-5" relative="1" as="geometry">
            <mxPoint x="559.52" y="-117.51999999999998" as="sourcePoint" />
            <mxPoint x="450" y="120" as="targetPoint" />
            <mxPoint as="offset" />
          </mxGeometry>
        </mxCell>
        <mxCell id="n-i_DfEyNYGNLPT6RtmV-4" value="Can not find file" style="ellipse;whiteSpace=wrap;html=1;" parent="1" vertex="1">
          <mxGeometry x="660" y="50" width="120" height="80" as="geometry" />
        </mxCell>
        <mxCell id="n-i_DfEyNYGNLPT6RtmV-5" value="&lt;div&gt;Extend&lt;/div&gt;" style="html=1;verticalAlign=bottom;endArrow=open;dashed=1;endSize=8;exitX=0.079;exitY=0.769;exitDx=0;exitDy=0;exitPerimeter=0;entryX=0.948;entryY=0.274;entryDx=0;entryDy=0;entryPerimeter=0;" parent="1" source="n-i_DfEyNYGNLPT6RtmV-4" target="n-i_DfEyNYGNLPT6RtmV-1" edge="1">
          <mxGeometry relative="1" as="geometry">
            <mxPoint x="670" y="110" as="sourcePoint" />
            <mxPoint x="600" y="130" as="targetPoint" />
          </mxGeometry>
        </mxCell>
        <mxCell id="n-i_DfEyNYGNLPT6RtmV-6" value="Export salary calculation excel&amp;nbsp; table" style="ellipse;whiteSpace=wrap;html=1;" parent="1" vertex="1">
          <mxGeometry x="300" y="240" width="120" height="80" as="geometry" />
        </mxCell>
        <mxCell id="n-i_DfEyNYGNLPT6RtmV-7" value="" style="endArrow=none;html=1;entryX=1;entryY=0.3333333333333333;entryDx=0;entryDy=0;entryPerimeter=0;exitX=0;exitY=0.5;exitDx=0;exitDy=0;" parent="1" source="n-i_DfEyNYGNLPT6RtmV-6" target="f3-mS_p8eY1mGGOlr4Zz-1" edge="1">
          <mxGeometry width="50" height="50" relative="1" as="geometry">
            <mxPoint x="316.96000000000015" y="169.0400000000002" as="sourcePoint" />
            <mxPoint x="190.0000000000001" y="90" as="targetPoint" />
          </mxGeometry>
        </mxCell>
      </root>
    </mxGraphModel>
  </diagram>
</mxfile>
